<svg width="25" height="30" viewBox="0 0 25 30" fill="none" xmlns="http://www.w3.org/2000/svg">
<path d="M4.5 6C4.5 5.17158 5.17158 4.5 6 4.5H18C18.8284 4.5 19.5 5.17158 19.5 6V9C19.5 9.82842 18.8284 10.5 18 10.5H6C5.17158 10.5 4.5 9.82842 4.5 9V6ZM6.75 8.25H17.25V6.75H6.75V8.25ZM0 3.75C0 1.67894 1.67894 0 3.75 0H21C23.0711 0 24.75 1.67894 24.75 3.75V25.125C24.75 25.7463 24.2463 26.25 23.625 26.25H2.25C2.25 27.0784 2.92158 27.75 3.75 27.75H23.625C24.2463 27.75 24.75 28.2537 24.75 28.875C24.75 29.4963 24.2463 30 23.625 30H3.75C1.67894 30 0 28.3211 0 26.25V3.75ZM2.25 24H22.5V3.75C22.5 2.92158 21.8284 2.25 21 2.25H3.75C2.92158 2.25 2.25 2.92158 2.25 3.75V24Z" fill="#212121"/>
</svg>
