<svg width="36" height="36" viewBox="0 0 36 36" fill="none" xmlns="http://www.w3.org/2000/svg">
<path d="M23.6989 4.5C25.9349 4.5 27.8841 6.0209 28.4277 8.18961L29.0055 10.5H30.375C30.9445 10.5 31.4153 10.9232 31.4898 11.4723L31.5 11.625C31.5 12.1946 31.0767 12.6652 30.5277 12.7397L30.375 12.75H29.571L29.883 13.9897C30.8562 14.5819 31.5062 15.6525 31.5062 16.875V29.6202C31.5062 31.07 30.3309 32.2452 28.8812 32.2452H26.625C25.1752 32.2452 24 31.07 24 29.6202L23.9985 27.75H12.006L12.0061 29.6202C12.0061 31.07 10.8309 32.2452 9.38112 32.2452H7.125C5.67525 32.2452 4.5 31.07 4.5 29.6202V16.875C4.5 15.6528 5.14974 14.5822 6.12265 13.99L6.4335 12.75H5.625C5.05545 12.75 4.58477 12.3268 4.51028 11.7777L4.5 11.625C4.5 11.0554 4.92323 10.5848 5.47235 10.5103L5.625 10.5H6.9945L7.57347 8.19264C8.11602 6.02246 10.0659 4.5 12.3029 4.5H23.6989ZM9.756 27.75H6.7485L6.75 29.6202C6.75 29.8272 6.9179 29.9952 7.125 29.9952H9.38112C9.58822 29.9952 9.75612 29.8272 9.75612 29.6202L9.756 27.75ZM29.256 27.75H26.2485L26.25 29.6202C26.25 29.8272 26.4179 29.9952 26.625 29.9952H28.8812C29.0883 29.9952 29.2562 29.8272 29.2562 29.6202L29.256 27.75ZM28.1312 15.75H7.875C7.25368 15.75 6.75 16.2537 6.75 16.875V25.5H29.2562V16.875C29.2562 16.2537 28.7525 15.75 28.1312 15.75ZM15.3735 21H20.626C21.2475 21 21.751 21.5037 21.751 22.125C21.751 22.6945 21.3279 23.1653 20.7787 23.2398L20.626 23.25H15.3735C14.7522 23.25 14.2485 22.7463 14.2485 22.125C14.2485 21.5555 14.6717 21.0847 15.2208 21.0102L15.3735 21ZM25.5 18C26.3283 18 26.9999 18.6715 26.9999 19.5C26.9999 20.3283 26.3283 20.9998 25.5 20.9998C24.6716 20.9998 24 20.3283 24 19.5C24 18.6715 24.6716 18 25.5 18ZM10.5 18C11.3284 18 11.9999 18.6715 11.9999 19.5C11.9999 20.3283 11.3284 20.9998 10.5 20.9998C9.67155 20.9998 9 20.3283 9 19.5C9 18.6715 9.67155 18 10.5 18ZM23.6989 6.75H12.3029C11.0984 6.75 10.0484 7.56978 9.75628 8.73834L8.56587 13.5H27.4394L26.2452 8.73672C25.9525 7.56894 24.9029 6.75 23.6989 6.75Z" fill="#333333"/>
</svg>
