<svg width="36" height="36" viewBox="0 0 36 36" fill="none" xmlns="http://www.w3.org/2000/svg">
<path d="M27.7384 3.49632L32.5065 8.26449C33.8245 9.58251 33.8245 11.7194 32.5065 13.0375L28.6299 16.9134C30.2544 17.157 31.5 18.5584 31.5 20.2509V28.1259C31.5 29.9898 29.9889 31.5009 28.125 31.5009H7.875C6.01104 31.5009 4.5 29.9898 4.5 28.1259V7.87582C4.5 6.01186 6.01104 4.50082 7.875 4.50082H15.75C17.4433 4.50082 18.8455 5.74801 19.0879 7.37394L22.9655 3.49632C24.2835 2.17831 26.4204 2.17831 27.7384 3.49632ZM6.75 28.1259C6.75 28.7472 7.25368 29.2509 7.875 29.2509L16.8735 29.2498L16.875 19.1259L6.75 19.1248V28.1259ZM19.1235 29.2498L28.125 29.2509C28.7463 29.2509 29.25 28.7472 29.25 28.1259V20.2509C29.25 19.6294 28.7463 19.1259 28.125 19.1259L19.1235 19.1248V29.2498ZM15.75 6.75082H7.875C7.25368 6.75082 6.75 7.25451 6.75 7.87582V16.8748H16.875V7.87582C16.875 7.25451 16.3713 6.75082 15.75 6.75082ZM19.125 13.9648V16.8759L22.035 16.8748L19.125 13.9648ZM24.5563 5.08731L19.7883 9.85548C19.3489 10.2948 19.3489 11.0071 19.7883 11.4465L24.5563 16.2145C24.9957 16.6539 25.7081 16.6539 26.1474 16.2145L30.9156 11.4465C31.3549 11.0071 31.3549 10.2948 30.9156 9.85548L26.1474 5.08731C25.7081 4.64797 24.9957 4.64797 24.5563 5.08731Z" fill="white"/>
</svg>
