<svg width="29" height="32" viewBox="0 0 29 32" fill="none" xmlns="http://www.w3.org/2000/svg">
<path d="M3.375 0C1.51104 0 0 1.51104 0 3.375V26.625C0 28.4889 1.51104 30 3.375 30H13.2144C12.5748 29.3335 12.0291 28.5765 11.5983 27.75H3.375C2.75368 27.75 2.25 27.2463 2.25 26.625V3.375C2.25 2.75368 2.75368 2.25 3.375 2.25H20.625C21.2463 2.25 21.75 2.75368 21.75 3.375V13.6146C22.5348 13.7358 23.2887 13.9506 24 14.2473V3.375C24 1.51104 22.4889 0 20.625 0H3.375ZM20.25 31.5C24.8064 31.5 28.5 27.8064 28.5 23.25C28.5 18.6936 24.8064 15 20.25 15C15.6936 15 12 18.6936 12 23.25C12 27.8064 15.6936 31.5 20.25 31.5ZM25.5 23.25C25.5 23.6642 25.1642 24 24.75 24H17.5606L20.0304 26.4696C20.3232 26.7626 20.3232 27.2374 20.0304 27.5304C19.7374 27.8232 19.2626 27.8232 18.9696 27.5304L15.2196 23.7804C14.9268 23.4874 14.9268 23.0126 15.2196 22.7196L18.9696 18.9696C19.2626 18.6768 19.7374 18.6768 20.0304 18.9696C20.3232 19.2626 20.3232 19.7374 20.0304 20.0304L17.5606 22.5H24.75C25.1642 22.5 25.5 22.8358 25.5 23.25ZM6.75 16.875C7.99264 16.875 9 15.8676 9 14.625C9 13.3824 7.99264 12.375 6.75 12.375C5.50736 12.375 4.5 13.3824 4.5 14.625C4.5 15.8676 5.50736 16.875 6.75 16.875Z" fill="#FF6565"/>
</svg>
