<svg width="36" height="36" viewBox="0 0 36 36" fill="none" xmlns="http://www.w3.org/2000/svg">
<path d="M16.1817 4.65322C16.9245 3.14815 19.0707 3.14814 19.8135 4.65322L23.3505 11.8198L31.2593 12.969C32.9202 13.2104 33.5833 15.2515 32.3815 16.423L26.6586 22.0014L28.0096 29.8783C28.2933 31.5325 26.5571 32.794 25.0714 32.013L17.9976 28.294L10.9238 32.013C9.4382 32.794 7.70189 31.5325 7.98561 29.8783L9.3366 22.0014L3.61374 16.423C2.41187 15.2515 3.07508 13.2104 4.73603 12.969L12.6448 11.8198L16.1817 4.65322ZM17.9976 6.05781L14.6101 12.9216C14.3152 13.5193 13.745 13.9336 13.0854 14.0294L5.51073 15.13L10.9918 20.4729C11.4691 20.938 11.6869 21.6082 11.5742 22.2652L10.2803 29.8093L17.0553 26.2474C17.6453 25.9372 18.35 25.9372 18.9399 26.2474L25.7149 29.8093L24.4211 22.2652C24.3084 21.6082 24.5262 20.938 25.0033 20.4729L30.4845 15.13L22.9098 14.0294C22.2502 13.9336 21.6801 13.5193 21.3852 12.9216L17.9976 6.05781Z" fill="#333333"/>
</svg>
