<svg width="30" height="30" viewBox="0 0 30 30" fill="none" xmlns="http://www.w3.org/2000/svg">
<path d="M15.0183 0.375C16.1193 0.38769 17.216 0.51489 18.2906 0.75456C18.7596 0.859185 19.1105 1.25026 19.1637 1.72794L19.419 4.01822C19.5347 5.06979 20.4225 5.86626 21.4809 5.86737C21.7655 5.86782 22.0469 5.80857 22.3098 5.69224L24.4107 4.76934C24.8477 4.57739 25.3583 4.68204 25.6844 5.03043C27.2027 6.65196 28.3334 8.59673 28.9916 10.7184C29.1335 11.1759 28.9701 11.673 28.5846 11.9573L26.7224 13.3299C26.1911 13.7202 25.8774 14.34 25.8774 14.9993C25.8774 15.6583 26.1911 16.2781 26.7236 16.6693L28.5873 18.0424C28.973 18.3265 29.1365 18.8238 28.9946 19.2814C28.3367 21.4028 27.2066 23.3473 25.6892 24.9691C25.3634 25.3174 24.8532 25.4225 24.4163 25.2309L22.3068 24.3068C21.7032 24.0426 21.0102 24.0813 20.4398 24.411C19.8695 24.7406 19.49 25.3218 19.4175 25.9765L19.1639 28.2666C19.1115 28.7388 18.7683 29.1273 18.306 29.2373C16.1334 29.7542 13.8698 29.7542 11.697 29.2373C11.2349 29.1273 10.8916 28.7388 10.8393 28.2666L10.586 25.98C10.5117 25.3265 10.1315 24.747 9.56163 24.4185C8.99177 24.09 8.2998 24.0515 7.6983 24.3141L5.58836 25.2384C5.15133 25.4299 4.64105 25.3249 4.31517 24.9763C2.79693 23.3528 1.66679 21.4058 1.0098 19.2822C0.868292 18.8249 1.03179 18.3279 1.41728 18.0439L3.28227 16.67C3.81348 16.2797 4.12721 15.6598 4.12721 15.0007C4.12721 14.3415 3.81348 13.7217 3.28157 13.3309L1.41774 11.9593C1.0317 11.6752 0.868052 11.1777 1.01006 10.7199C1.66818 8.59822 2.79891 6.65346 4.3172 5.03193C4.64339 4.68354 5.15391 4.57889 5.59086 4.77084L7.69143 5.69358C8.29584 5.95884 8.9907 5.91878 9.56366 5.58403C10.1341 5.25314 10.5139 4.67133 10.5873 4.01646L10.8424 1.72794C10.8956 1.25002 11.2468 0.85881 11.7162 0.75441C12.7922 0.51513 13.89 0.387975 15.0183 0.375ZM15.0186 2.62485C14.3375 2.63286 13.6584 2.69164 12.9867 2.80053L12.8234 4.26627C12.6707 5.63052 11.88 6.84153 10.6956 7.52855C9.50396 8.22476 8.05104 8.30854 6.78687 7.75375L5.43944 7.16184C4.58154 8.20309 3.89871 9.37702 3.41778 10.6375L4.61448 11.5182C5.7227 12.3324 6.37721 13.6255 6.37721 15.0007C6.37721 16.3758 5.7227 17.6689 4.61565 18.4823L3.41708 19.3653C3.89759 20.628 4.58052 21.8041 5.439 22.8474L6.7967 22.2527C8.05385 21.7038 9.49686 21.7841 10.6853 22.4691C11.8737 23.1542 12.6665 24.3625 12.822 25.7289L12.9855 27.2048C14.3199 27.4317 15.6833 27.4317 17.0177 27.2048L17.1812 25.729C17.3324 24.3632 18.1242 23.1505 19.314 22.4629C20.5038 21.7752 21.9498 21.6945 23.2092 22.2458L24.5658 22.84C25.4235 21.7985 26.1062 20.6243 26.5871 19.3635L25.3901 18.4817C24.2819 17.6674 23.6274 16.3743 23.6274 14.9993C23.6274 13.6241 24.2819 12.3309 25.3887 11.5177L26.5841 10.6366C26.1032 9.37592 25.4202 8.20176 24.5622 7.16034L23.2175 7.75105C22.6695 7.99351 22.0767 8.1183 21.4781 8.11737C19.2735 8.11506 17.4233 6.45533 17.1827 4.26575L17.0193 2.80005C16.3511 2.6913 15.6789 2.63268 15.0186 2.62485ZM14.9996 9.37493C18.1062 9.37493 20.6245 11.8933 20.6245 15C20.6245 18.1065 18.1062 20.625 14.9996 20.625C11.8929 20.625 9.37455 18.1065 9.37455 15C9.37455 11.8933 11.8929 9.37493 14.9996 9.37493ZM14.9996 11.6249C13.1357 11.6249 11.6246 13.136 11.6246 15C11.6246 16.8639 13.1357 18.375 14.9996 18.375C16.8635 18.375 18.3745 16.8639 18.3745 15C18.3745 13.136 16.8635 11.6249 14.9996 11.6249Z" fill="#212121"/>
</svg>
